<svg width="138" height="32" viewBox="0 0 138 32" fill="none" xmlns="http://www.w3.org/2000/svg">
<path d="M41.062 25L41.314 10.42H44.068L46.138 20.518L48.298 10.42H50.962L51.232 25H49.252L49.036 14.866L46.966 25H45.364L43.258 14.83L43.06 25H41.062ZM55.3488 25V19.438L52.3968 10.42H54.8808L56.6808 16.198L58.3728 10.42H60.8028L57.8868 19.438V25H55.3488ZM62.0863 25V10.42H65.5243C66.7123 10.42 67.6363 10.582 68.2963 10.906C68.9683 11.23 69.4423 11.728 69.7183 12.4C70.0063 13.072 70.1503 13.924 70.1503 14.956V20.284C70.1503 21.34 70.0063 22.222 69.7183 22.93C69.4423 23.626 68.9743 24.148 68.3143 24.496C67.6663 24.832 66.7723 25 65.6323 25H62.0863ZM64.7503 23.146H65.5603C66.1723 23.146 66.6103 23.038 66.8743 22.822C67.1383 22.606 67.3003 22.294 67.3603 21.886C67.4203 21.466 67.4503 20.956 67.4503 20.356V14.776C67.4503 14.188 67.4083 13.714 67.3243 13.354C67.2403 12.994 67.0663 12.73 66.8023 12.562C66.5383 12.394 66.1123 12.31 65.5243 12.31H64.7503V23.146ZM72.1058 25V10.42H75.5978C76.5818 10.42 77.4098 10.54 78.0818 10.78C78.7658 11.008 79.2818 11.404 79.6298 11.968C79.9898 12.532 80.1698 13.3 80.1698 14.272C80.1698 14.86 80.1158 15.388 80.0078 15.856C79.8998 16.324 79.7138 16.726 79.4498 17.062C79.1978 17.386 78.8438 17.638 78.3878 17.818L80.4218 25H77.7578L75.9938 18.322H74.7698V25H72.1058ZM74.7698 16.648H75.5978C76.1138 16.648 76.5218 16.576 76.8218 16.432C77.1338 16.276 77.3558 16.036 77.4878 15.712C77.6198 15.376 77.6858 14.95 77.6858 14.434C77.6858 13.702 77.5478 13.156 77.2718 12.796C77.0078 12.424 76.4978 12.238 75.7418 12.238H74.7698V16.648ZM82.1957 25V10.42H88.3157V12.292H84.8597V16.486H87.5777V18.34H84.8597V23.164H88.3517V25H82.1957ZM89.1569 25L92.0729 10.42H94.9169L97.8329 25H95.3669L94.7909 21.634H92.2529L91.6589 25H89.1569ZM92.5229 19.942H94.5029L93.5129 13.822L92.5229 19.942ZM99.2632 25L99.5152 10.42H102.269L104.339 20.518L106.499 10.42H109.163L109.433 25H107.453L107.237 14.866L105.167 25H103.565L101.459 14.83L101.261 25H99.2632ZM111.586 25V10.42H115.024C116.212 10.42 117.136 10.582 117.796 10.906C118.468 11.23 118.942 11.728 119.218 12.4C119.506 13.072 119.65 13.924 119.65 14.956V20.284C119.65 21.34 119.506 22.222 119.218 22.93C118.942 23.626 118.474 24.148 117.814 24.496C117.166 24.832 116.272 25 115.132 25H111.586ZM114.25 23.146H115.06C115.672 23.146 116.11 23.038 116.374 22.822C116.638 22.606 116.8 22.294 116.86 21.886C116.92 21.466 116.95 20.956 116.95 20.356V14.776C116.95 14.188 116.908 13.714 116.824 13.354C116.74 12.994 116.566 12.73 116.302 12.562C116.038 12.394 115.612 12.31 115.024 12.31H114.25V23.146ZM120.762 25L123.678 10.42H126.522L129.438 25H126.972L126.396 21.634H123.858L123.264 25H120.762ZM124.128 19.942H126.108L125.118 13.822L124.128 19.942ZM132.359 25V19.438L129.407 10.42H131.891L133.691 16.198L135.383 10.42H137.813L134.897 19.438V25H132.359Z" fill="white"/>
<path d="M21.3811 27.8648C19.1795 27.8648 17.0832 27.203 15.2938 25.9469C13.6951 27.1506 11.7078 27.8648 9.55702 27.8648C4.28726 27.8648 0 23.5776 0 18.3078C0 13.803 3.13274 10.0161 7.33424 9.01187L5.23038 6.62555C5.15622 6.54223 5.10998 6.43327 5.10655 6.31368C5.10622 6.30012 5.10639 6.28673 5.10704 6.27317C5.10737 6.27284 5.1072 6.27268 5.1072 6.27235C5.11227 6.1807 5.14233 6.09608 5.19085 6.02469L6.28999 4.35556C6.38082 4.21784 6.53455 4.13501 6.69939 4.13501H12.4148C12.5796 4.13501 12.7334 4.21784 12.8242 4.35556L13.9232 6.02452C13.9737 6.09853 14.0042 6.18707 14.0075 6.28264C14.0075 6.28313 14.0075 6.28346 14.0075 6.28395C14.0078 6.29081 14.0078 6.29767 14.0078 6.30437C14.0078 6.30453 14.0078 6.30453 14.0078 6.30453C14.0078 6.30486 14.0078 6.30502 14.0078 6.30535C14.0063 6.4282 13.9598 6.54027 13.884 6.62539L11.7796 9.0117C12.5032 9.18487 13.1949 9.44022 13.8446 9.76777C15.8315 7.76733 18.5568 6.62702 21.3811 6.62702C27.2364 6.62702 32 11.3907 32 17.2459C32 23.1012 27.2364 27.8648 21.3811 27.8648ZM16.0762 25.2942C17.6509 26.3367 19.4725 26.8846 21.3811 26.8846C26.6958 26.8846 31.0198 22.5606 31.0198 17.2459C31.0198 11.9312 26.6958 7.60723 21.3811 7.60723C18.9064 7.60723 16.5152 8.57192 14.7299 10.2724C15.003 10.4488 15.2679 10.6397 15.5227 10.8437C17.1267 9.37209 19.1898 8.56685 21.3811 8.56685C26.1666 8.56685 30.06 12.4602 30.06 17.2458C30.06 22.0313 26.1666 25.9247 21.3811 25.9247C19.7312 25.9247 18.142 25.4643 16.7568 24.589C16.5416 24.8362 16.3142 25.0714 16.0762 25.2942ZM8.32228 9.81956C4.17585 10.4199 0.980207 13.9977 0.980207 18.3078C0.980207 23.037 4.82785 26.8846 9.55702 26.8846C14.2862 26.8846 18.1338 23.037 18.1338 18.3078C18.1338 13.9977 14.9384 10.4199 10.7919 9.81972L9.55702 9.73232L8.32228 9.81956ZM17.3652 23.8132C18.5733 24.5548 19.9515 24.9446 21.3811 24.9446C25.626 24.9446 29.0798 21.4909 29.0798 17.2459C29.0798 13.001 25.626 9.54722 21.3811 9.54722C19.471 9.54722 17.6704 10.2371 16.2584 11.5001C18.0201 13.2346 19.114 15.6459 19.114 18.3078C19.114 20.356 18.4663 22.2558 17.3652 23.8132ZM6.68191 6.7899L8.46556 8.81272C8.82366 8.77188 9.18813 8.7508 9.55702 8.7508C9.9259 8.7508 10.29 8.77188 10.6483 8.81272L12.432 6.7899H6.68191ZM6.50596 5.80969H12.6079L12.1506 5.11538H6.96323L6.50596 5.80969ZM9.55702 26.1282C5.24476 26.1282 1.7366 22.6199 1.7366 18.3078C1.7366 13.9957 5.24492 10.4874 9.55702 10.4874C10.8197 10.4874 12.0136 10.7883 13.0706 11.3221C13.0756 11.3243 13.0807 11.3268 13.0858 11.3294C13.7062 11.6437 14.2806 12.0374 14.7933 12.4999C14.8072 12.5123 14.8201 12.5256 14.8322 12.5391C16.3956 13.9701 17.3774 16.0264 17.3774 18.3078C17.3774 20.0928 16.7762 21.7402 15.7658 23.0577C15.7588 23.0685 15.7513 23.0791 15.7433 23.0894C15.3179 23.639 14.8233 24.1288 14.2731 24.5454C14.2596 24.5557 14.2455 24.5653 14.2311 24.574C12.9263 25.5499 11.3082 26.1282 9.55702 26.1282ZM9.55702 11.4676C5.78534 11.4676 2.71681 14.5361 2.71681 18.3078C2.71681 22.0795 5.78534 25.148 9.55702 25.148C10.9141 25.148 12.1801 24.7509 13.2447 24.0665C11.64 22.1555 10.7622 19.7546 10.7622 17.2459C10.7622 15.3911 11.2438 13.5829 12.16 11.9821C11.3572 11.6506 10.4781 11.4676 9.55702 11.4676ZM13.0382 12.4214C12.189 13.8858 11.7424 15.5441 11.7424 17.2459C11.7424 19.5411 12.5517 21.7366 14.0308 23.4781C14.2734 23.2678 14.5013 23.0408 14.7124 22.799C13.413 21.2409 12.7022 19.2854 12.7022 17.2459C12.7022 15.741 13.0908 14.2715 13.8296 12.9698C13.5796 12.7692 13.3151 12.5859 13.0382 12.4214ZM14.57 13.6585C13.9879 14.7611 13.6824 15.9895 13.6824 17.2459C13.6824 18.977 14.2596 20.6396 15.3192 21.9906C16.0014 20.9268 16.3974 19.6626 16.3974 18.3078C16.3972 16.5142 15.7034 14.8797 14.57 13.6585Z" fill="white"/>
</svg>
