<svg width="181" height="45" viewBox="0 0 181 45" fill="none" xmlns="http://www.w3.org/2000/svg">
<path d="M56.357 34L56.679 15.37H60.198L62.843 28.273L65.603 15.37H69.007L69.352 34H66.822L66.546 21.051L63.901 34H61.854L59.163 21.005L58.91 34H56.357ZM74.6124 34V26.893L70.8404 15.37H74.0144L76.3144 22.753L78.4764 15.37H81.5814L77.8554 26.893V34H74.6124ZM83.2214 34V15.37H87.6144C89.1324 15.37 90.313 15.577 91.1564 15.991C92.015 16.405 92.6207 17.0413 92.9734 17.9C93.3414 18.7587 93.5254 19.8473 93.5254 21.166V27.974C93.5254 29.3233 93.3414 30.4503 92.9734 31.355C92.6207 32.2443 92.0227 32.9113 91.1794 33.356C90.3514 33.7853 89.209 34 87.7524 34H83.2214ZM86.6254 31.631H87.6604C88.4424 31.631 89.002 31.493 89.3394 31.217C89.6767 30.941 89.8837 30.5423 89.9604 30.021C90.037 29.4843 90.0754 28.8327 90.0754 28.066V20.936C90.0754 20.1847 90.0217 19.579 89.9144 19.119C89.807 18.659 89.5847 18.3217 89.2474 18.107C88.91 17.8923 88.3657 17.785 87.6144 17.785H86.6254V31.631ZM96.0241 34V15.37H100.486C101.743 15.37 102.801 15.5233 103.66 15.83C104.534 16.1213 105.193 16.6273 105.638 17.348C106.098 18.0687 106.328 19.05 106.328 20.292C106.328 21.0433 106.259 21.718 106.121 22.316C105.983 22.914 105.745 23.4277 105.408 23.857C105.086 24.271 104.634 24.593 104.051 24.823L106.65 34H103.246L100.992 25.467H99.4281V34H96.0241ZM99.4281 23.328H100.486C101.145 23.328 101.667 23.236 102.05 23.052C102.449 22.8527 102.732 22.546 102.901 22.132C103.07 21.7027 103.154 21.1583 103.154 20.499C103.154 19.5637 102.978 18.866 102.625 18.406C102.288 17.9307 101.636 17.693 100.67 17.693H99.4281V23.328ZM108.917 34V15.37H116.737V17.762H112.321V23.121H115.794V25.49H112.321V31.654H116.783V34H108.917ZM117.812 34L121.538 15.37H125.172L128.898 34H125.747L125.011 29.699H121.768L121.009 34H117.812ZM122.113 27.537H124.643L123.378 19.717L122.113 27.537ZM130.725 34L131.047 15.37H134.566L137.211 28.273L139.971 15.37H143.375L143.72 34H141.19L140.914 21.051L138.269 34H136.222L133.531 21.005L133.278 34H130.725ZM146.471 34V15.37H150.864C152.382 15.37 153.563 15.577 154.406 15.991C155.265 16.405 155.871 17.0413 156.223 17.9C156.591 18.7587 156.775 19.8473 156.775 21.166V27.974C156.775 29.3233 156.591 30.4503 156.223 31.355C155.871 32.2443 155.273 32.9113 154.429 33.356C153.601 33.7853 152.459 34 151.002 34H146.471ZM149.875 31.631H150.91C151.692 31.631 152.252 31.493 152.589 31.217C152.927 30.941 153.134 30.5423 153.21 30.021C153.287 29.4843 153.325 28.8327 153.325 28.066V20.936C153.325 20.1847 153.272 19.579 153.164 19.119C153.057 18.659 152.835 18.3217 152.497 18.107C152.16 17.8923 151.616 17.785 150.864 17.785H149.875V31.631ZM158.196 34L161.922 15.37H165.556L169.282 34H166.131L165.395 29.699H162.152L161.393 34H158.196ZM162.497 27.537H165.027L163.762 19.717L162.497 27.537ZM173.014 34V26.893L169.242 15.37H172.416L174.716 22.753L176.878 15.37H179.983L176.257 26.893V34H173.014Z" fill="#343434"/>
<g clip-path="url(#clip0_22_3)">
<path d="M30.0672 39.1849C26.9712 39.1849 24.0233 38.2543 21.507 36.4878C19.2588 38.1805 16.464 39.1849 13.4396 39.1849C6.02896 39.1849 0 33.156 0 25.7454C0 19.4104 4.40542 14.0851 10.3138 12.6729L7.35523 9.31717C7.25093 9.20001 7.18591 9.04678 7.18109 8.87861C7.18063 8.85954 7.18086 8.8407 7.18178 8.82163C7.18224 8.82117 7.18201 8.82095 7.18201 8.82049C7.18913 8.6916 7.2314 8.5726 7.29963 8.47221L8.8453 6.12499C8.97303 5.93133 9.18921 5.81485 9.42101 5.81485H17.4583C17.6901 5.81485 17.9063 5.93133 18.034 6.12499L19.5795 8.47198C19.6505 8.57605 19.6934 8.70056 19.698 8.83496C19.698 8.83565 19.698 8.83611 19.698 8.8368C19.6985 8.84645 19.6985 8.85609 19.6985 8.86551C19.6985 8.86574 19.6985 8.86574 19.6985 8.86574C19.6985 8.8662 19.6985 8.86643 19.6985 8.86689C19.6964 9.03965 19.6309 9.19725 19.5243 9.31695L16.5651 12.6727C17.5826 12.9162 18.5553 13.2753 19.469 13.7359C22.263 10.9228 26.0955 9.31924 30.0672 9.31924C38.3011 9.31924 45 16.0181 45 24.2521C45 32.486 38.3011 39.1849 30.0672 39.1849ZM22.6072 35.57C24.8216 37.036 27.3832 37.8065 30.0672 37.8065C37.5409 37.8065 43.6216 31.7259 43.6216 24.2521C43.6216 16.7783 37.5409 10.6977 30.0672 10.6977C26.5871 10.6977 23.2245 12.0542 20.7139 14.4456C21.098 14.6937 21.4704 14.962 21.8288 15.249C24.0844 13.1795 26.9857 12.0471 30.0672 12.0471C36.7968 12.0471 42.2719 17.5222 42.2719 24.2519C42.2719 30.9815 36.7968 36.4566 30.0672 36.4566C27.7471 36.4566 25.5122 35.8092 23.5643 34.5783C23.2617 34.9258 22.9419 35.2567 22.6072 35.57ZM11.7032 13.8087C5.87228 14.653 1.37842 19.6842 1.37842 25.7454C1.37842 32.3958 6.78916 37.8065 13.4396 37.8065C20.09 37.8065 25.5007 32.3958 25.5007 25.7454C25.5007 19.6842 21.0071 14.653 15.1761 13.809L13.4396 13.6861L11.7032 13.8087ZM24.4198 33.4872C26.1187 34.5302 28.0567 35.0784 30.0672 35.0784C36.0366 35.0784 40.8935 30.2215 40.8935 24.2521C40.8935 18.2826 36.0366 13.4258 30.0672 13.4258C27.3811 13.4258 24.8489 14.3959 22.8633 16.172C25.3408 18.6111 26.8791 22.002 26.8791 25.7454C26.8791 28.6256 25.9682 31.2972 24.4198 33.4872ZM9.39643 9.54829L11.9047 12.3929C12.4083 12.3354 12.9208 12.3058 13.4396 12.3058C13.9583 12.3058 14.4704 12.3354 14.9742 12.3929L17.4825 9.54829H9.39643ZM9.14901 8.16987H17.7299L17.0868 7.1935H9.79204L9.14901 8.16987ZM13.4396 36.7428C7.37544 36.7428 2.44209 31.8092 2.44209 25.7454C2.44209 19.6815 7.37567 14.7479 13.4396 14.7479C15.2152 14.7479 16.8941 15.1711 18.3805 15.9216C18.3876 15.9248 18.3947 15.9283 18.4019 15.932C19.2744 16.374 20.0821 16.9276 20.8031 17.578C20.8226 17.5955 20.8407 17.6141 20.8577 17.6332C23.0563 19.6454 24.437 22.5371 24.437 25.7454C24.437 28.2555 23.5916 30.5721 22.1707 32.4249C22.1608 32.4401 22.1502 32.455 22.139 32.4695C21.5407 33.2423 20.8453 33.9311 20.0716 34.5169C20.0525 34.5314 20.0328 34.5449 20.0125 34.5571C18.1776 35.9296 15.9021 36.7428 13.4396 36.7428ZM13.4396 16.1263C8.13564 16.1263 3.82051 20.4415 3.82051 25.7454C3.82051 31.0493 8.13564 35.3644 13.4396 35.3644C15.348 35.3644 17.1282 34.8059 18.6254 33.8436C16.3687 31.1561 15.1343 27.7799 15.1343 24.2521C15.1343 21.6437 15.8116 19.1009 17.0999 16.8498C15.971 16.3836 14.7348 16.1263 13.4396 16.1263ZM18.335 17.4675C17.1408 19.5269 16.5127 21.8589 16.5127 24.2521C16.5127 27.4796 17.6508 30.5671 19.7309 33.0161C20.072 32.7204 20.3925 32.401 20.6893 32.061C18.862 29.87 17.8624 27.1201 17.8624 24.2521C17.8624 22.1358 18.409 20.0693 19.4478 18.2387C19.0963 17.9566 18.7244 17.6989 18.335 17.4675ZM20.489 19.2073C19.6705 20.7578 19.2409 22.4852 19.2409 24.2521C19.2409 26.6864 20.0525 29.0244 21.5426 30.9243C22.502 29.4283 23.0588 27.6506 23.0588 25.7454C23.0586 23.2231 22.0829 20.9246 20.489 19.2073Z" fill="#BF9B30"/>
</g>
<defs>
<clipPath id="clip0_22_3">
<rect width="45" height="45" fill="white"/>
</clipPath>
</defs>
</svg>
